<svg width="220" height="220" viewBox="0 0 220 220" fill="none" xmlns="http://www.w3.org/2000/svg">
<path fill-rule="evenodd" clip-rule="evenodd" d="M42.5994 88.8912C43.9015 83.0937 45.2036 43.1556 56.9227 43.7999C98.5902 45.0882 141.56 1.92889 172.811 97.9106C269.167 143.002 179.511 179.237 103.229 176.016C27.853 172.861 -36.5033 118.524 42.5994 88.8926V88.8912Z" fill="black" fill-opacity="0.992"/>
<path fill-rule="evenodd" clip-rule="evenodd" d="M40.6461 101.778C88.8235 132.054 168.253 113.373 171.507 98.5571C176.065 103.71 171.507 117.882 171.507 117.882C150.674 144.937 49.7604 139.139 38.6927 119.814C37.3906 114.661 39.9948 103.71 40.646 101.778L40.6461 101.778Z" fill="white"/>
<path fill-rule="evenodd" clip-rule="evenodd" d="M58.876 53.4596C71.2463 42.5086 125.284 57.9688 132.447 66.3431C135.051 80.5147 66.0385 69.564 58.876 53.4596Z" fill="url(#paint0_linear_104_95)"/>
<path fill-rule="evenodd" clip-rule="evenodd" d="M58.876 69.5748C64.7356 83.1025 87.523 114.667 125.935 84.3906C94.0329 85.679 80.3606 81.8139 58.876 69.5748Z" fill="url(#paint1_linear_104_95)"/>
<path fill-rule="evenodd" clip-rule="evenodd" d="M72.5482 43.1637C81.012 47.0287 134.4 61.8443 140.259 57.3353C146.769 54.7585 145.467 53.4701 142.212 52.8261C137.004 56.047 127.889 57.9795 72.548 43.1634L72.5482 43.1637Z" fill="url(#paint2_linear_104_95)"/>
<path fill-rule="evenodd" clip-rule="evenodd" d="M48.4501 108.845C56.2663 112.552 80.3662 117.494 89.4861 118.112C95.9997 122.436 92.7428 129.231 90.1375 134.173C72.5516 134.173 52.3584 129.849 47.1481 124.289C43.8913 118.729 45.194 114.405 48.4508 108.845L48.4501 108.845Z" fill="#4D4D4D" fill-opacity="0.317"/>
<path d="M110 211.861C166.256 211.861 211.861 166.256 211.861 110C211.861 53.7437 166.256 8.1391 110 8.1391C53.7437 8.1391 8.1391 53.7437 8.1391 110C8.1391 166.256 53.7437 211.861 110 211.861Z" stroke="#FF0000" stroke-width="11.9998"/>
<path d="M36.346 34.2339L179.985 187.233" stroke="#FF0000" stroke-width="11.9998"/>
<path fill-rule="evenodd" clip-rule="evenodd" d="M42.5991 88.8932C0.321162 144.031 41.0825 129.627 104.533 175.306C27.5356 172.177 -38.2044 118.284 42.5991 88.8946V88.8932Z" fill="black" fill-opacity="0.992"/>
<g clip-path="url(#clip0_104_95)">
<path d="M214.141 0H165.859C162.623 0 160 2.62333 160 5.85938V54.1406C160 57.3767 162.623 60 165.859 60H214.141C217.377 60 220 57.3767 220 54.1406V5.85938C220 2.62333 217.377 0 214.141 0Z" fill="#3178C6"/>
<path d="M214.141 0H165.859C162.623 0 160 2.62333 160 5.85938V54.1406C160 57.3767 162.623 60 165.859 60H214.141C217.377 60 220 57.3767 220 54.1406V5.85938C220 2.62333 217.377 0 214.141 0Z" fill="#3178C6"/>
<path fill-rule="evenodd" clip-rule="evenodd" d="M197.141 47.745V53.6115C198.095 54.1004 199.223 54.467 200.525 54.7114C201.827 54.9559 203.2 55.0781 204.642 55.0781C206.049 55.0781 207.384 54.9437 208.65 54.6748C209.915 54.4059 211.025 53.9629 211.979 53.3456C212.932 52.7285 213.687 51.9218 214.244 50.9257C214.8 49.9296 215.078 48.6983 215.078 47.2317C215.078 46.1684 214.919 45.2365 214.601 44.436C214.283 43.6355 213.825 42.9236 213.226 42.3002C212.627 41.6769 211.908 41.1177 211.071 40.6227C210.233 40.1277 209.289 39.6602 208.237 39.2203C207.467 38.9025 206.776 38.5939 206.165 38.2945C205.553 37.995 205.034 37.6895 204.606 37.3779C204.178 37.0662 203.848 36.7362 203.615 36.3879C203.383 36.0395 203.267 35.6454 203.267 35.2054C203.267 34.8021 203.371 34.4385 203.579 34.1146C203.787 33.7907 204.08 33.5127 204.459 33.2804C204.838 33.0483 205.303 32.8679 205.853 32.7396C206.403 32.6113 207.014 32.5472 207.687 32.5472C208.176 32.5472 208.693 32.5839 209.237 32.6571C209.781 32.7305 210.328 32.8436 210.878 32.9962C211.428 33.1491 211.963 33.3416 212.483 33.5738C213.003 33.806 213.483 34.0748 213.923 34.3805V28.8989C213.03 28.5567 212.055 28.3031 210.997 28.1381C209.94 27.9731 208.726 27.8906 207.357 27.8906C205.963 27.8906 204.642 28.0404 203.395 28.3398C202.148 28.6392 201.051 29.1067 200.103 29.7422C199.156 30.3778 198.407 31.1875 197.857 32.1714C197.306 33.1552 197.031 34.3315 197.031 35.7004C197.031 37.4481 197.536 38.9392 198.544 40.1736C199.553 41.408 201.084 42.4529 203.139 43.3085C203.946 43.6385 204.698 43.9623 205.394 44.2801C206.091 44.5979 206.694 44.9279 207.201 45.2701C207.708 45.6123 208.109 45.9851 208.402 46.3884C208.696 46.7917 208.842 47.25 208.842 47.7634C208.842 48.1423 208.751 48.4936 208.567 48.8175C208.384 49.1414 208.106 49.4224 207.733 49.6608C207.36 49.8991 206.895 50.0855 206.339 50.2199C205.783 50.3544 205.132 50.4216 204.386 50.4216C203.114 50.4216 201.855 50.1986 200.608 49.7524C199.36 49.3064 198.205 48.6373 197.141 47.745V47.745ZM187.279 33.2909H194.805V28.4766H173.828V33.2909H181.317V54.7266H187.279V33.2909Z" fill="white"/>
</g>
<defs>
<linearGradient id="paint0_linear_104_95" x1="94.6135" y1="61.5449" x2="93.7778" y2="64.8221" gradientUnits="userSpaceOnUse">
<stop stop-opacity="0.408"/>
<stop offset="1" stop-opacity="0"/>
</linearGradient>
<linearGradient id="paint1_linear_104_95" x1="92.8986" y1="72.9514" x2="90.8054" y2="100.513" gradientUnits="userSpaceOnUse">
<stop stop-color="white" stop-opacity="0.175"/>
<stop offset="1" stop-color="white" stop-opacity="0.375"/>
</linearGradient>
<linearGradient id="paint2_linear_104_95" x1="72.5483" y1="50.6716" x2="144.9" y2="50.6716" gradientUnits="userSpaceOnUse">
<stop stop-color="white" stop-opacity="0.175"/>
<stop offset="1" stop-color="white" stop-opacity="0.375"/>
</linearGradient>
<clipPath id="clip0_104_95">
<rect width="60" height="60" fill="white" transform="translate(160)"/>
</clipPath>
</defs>
</svg>
